<svg width="28" height="28" viewBox="0 0 28 28" fill="none" xmlns="http://www.w3.org/2000/svg">
<rect width="28" height="28" rx="6" fill="#A8CE55"/>
<g clip-path="url(#clip0_52_328)">
<path d="M14 5.80078C16.6719 5.80078 16.9883 5.8125 18.0391 5.85937C19.0156 5.90234 19.543 6.06641 19.8945 6.20313C20.3594 6.38281 20.6953 6.60156 21.043 6.94922C21.3945 7.30078 21.6094 7.63281 21.7891 8.09766C21.9258 8.44922 22.0898 8.98047 22.1328 9.95313C22.1797 11.0078 22.1914 11.3242 22.1914 13.9922C22.1914 16.6641 22.1797 16.9805 22.1328 18.0313C22.0898 19.0078 21.9258 19.5352 21.7891 19.8867C21.6094 20.3516 21.3906 20.6875 21.043 21.0352C20.6914 21.3867 20.3594 21.6016 19.8945 21.7813C19.543 21.918 19.0117 22.082 18.0391 22.125C16.9844 22.1719 16.668 22.1836 14 22.1836C11.3281 22.1836 11.0117 22.1719 9.96094 22.125C8.98438 22.082 8.45703 21.918 8.10547 21.7813C7.64063 21.6016 7.30469 21.3828 6.95703 21.0352C6.60547 20.6836 6.39063 20.3516 6.21094 19.8867C6.07422 19.5352 5.91016 19.0039 5.86719 18.0313C5.82031 16.9766 5.80859 16.6602 5.80859 13.9922C5.80859 11.3203 5.82031 11.0039 5.86719 9.95313C5.91016 8.97656 6.07422 8.44922 6.21094 8.09766C6.39063 7.63281 6.60938 7.29688 6.95703 6.94922C7.30859 6.59766 7.64063 6.38281 8.10547 6.20313C8.45703 6.06641 8.98828 5.90234 9.96094 5.85937C11.0117 5.8125 11.3281 5.80078 14 5.80078ZM14 4C11.2852 4 10.9453 4.01172 9.87891 4.05859C8.81641 4.10547 8.08594 4.27734 7.45313 4.52344C6.79297 4.78125 6.23438 5.12109 5.67969 5.67969C5.12109 6.23438 4.78125 6.79297 4.52344 7.44922C4.27734 8.08594 4.10547 8.8125 4.05859 9.875C4.01172 10.9453 4 11.2852 4 14C4 16.7148 4.01172 17.0547 4.05859 18.1211C4.10547 19.1836 4.27734 19.9141 4.52344 20.5469C4.78125 21.207 5.12109 21.7656 5.67969 22.3203C6.23438 22.875 6.79297 23.2188 7.44922 23.4727C8.08594 23.7188 8.8125 23.8906 9.875 23.9375C10.9414 23.9844 11.2813 23.9961 13.9961 23.9961C16.7109 23.9961 17.0508 23.9844 18.1172 23.9375C19.1797 23.8906 19.9102 23.7188 20.543 23.4727C21.1992 23.2188 21.7578 22.875 22.3125 22.3203C22.8672 21.7656 23.2109 21.207 23.4648 20.5508C23.7109 19.9141 23.8828 19.1875 23.9297 18.125C23.9766 17.0586 23.9883 16.7188 23.9883 14.0039C23.9883 11.2891 23.9766 10.9492 23.9297 9.88281C23.8828 8.82031 23.7109 8.08984 23.4648 7.45703C23.2188 6.79297 22.8789 6.23438 22.3203 5.67969C21.7656 5.125 21.207 4.78125 20.5508 4.52734C19.9141 4.28125 19.1875 4.10938 18.125 4.0625C17.0547 4.01172 16.7148 4 14 4Z" fill="black"/>
<path d="M14 8.86328C11.1641 8.86328 8.86328 11.1641 8.86328 14C8.86328 16.8359 11.1641 19.1367 14 19.1367C16.8359 19.1367 19.1367 16.8359 19.1367 14C19.1367 11.1641 16.8359 8.86328 14 8.86328ZM14 17.332C12.1602 17.332 10.668 15.8398 10.668 14C10.668 12.1602 12.1602 10.668 14 10.668C15.8398 10.668 17.332 12.1602 17.332 14C17.332 15.8398 15.8398 17.332 14 17.332Z" fill="black"/>
<path d="M20.5391 8.66016C20.5391 9.32422 20 9.85938 19.3398 9.85938C18.6758 9.85938 18.1406 9.32031 18.1406 8.66016C18.1406 7.99609 18.6797 7.46094 19.3398 7.46094C20 7.46094 20.5391 8 20.5391 8.66016Z" fill="black"/>
</g>
<defs>
<clipPath id="clip0_52_328">
<rect width="20" height="20" fill="white" transform="translate(4 4)"/>
</clipPath>
</defs>
</svg>
