<svg width="24" height="24" viewBox="0 0 24 24" fill="none" xmlns="http://www.w3.org/2000/svg">
<mask id="mask0_1_3089" style="mask-type:alpha" maskUnits="userSpaceOnUse" x="0" y="0" width="24" height="24">
<rect width="24" height="24" fill="#D9D9D9"/>
</mask>
<g mask="url(#mask0_1_3089)">
<path d="M11.9965 21.3845C11.5513 21.3845 11.1714 21.2263 10.8568 20.91C10.5419 20.5937 10.3845 20.2134 10.3845 19.7693H13.6155C13.6155 20.2168 13.4569 20.5978 13.1398 20.9125C12.8228 21.2272 12.4417 21.3845 11.9965 21.3845ZM5 18.7693V17.7693H6.6155V9.84625C6.6155 8.53975 7.02892 7.39067 7.85575 6.399C8.68275 5.40733 9.73083 4.78975 11 4.54625V4C11 3.72217 11.097 3.48608 11.291 3.29175C11.485 3.09725 11.7206 3 11.9978 3C12.2749 3 12.5113 3.09725 12.7067 3.29175C12.9022 3.48608 13 3.72217 13 4V4.54625C13.3937 4.62442 13.7655 4.74133 14.1155 4.897C14.4655 5.05283 14.7905 5.23458 15.0905 5.44225L14.3577 6.175C14.0206 5.95583 13.6538 5.78208 13.2575 5.65375C12.8612 5.52558 12.442 5.4615 12 5.4615C10.7847 5.4615 9.75008 5.88842 8.89625 6.74225C8.04242 7.59608 7.6155 8.63075 7.6155 9.84625V17.7693H19V18.7693H5ZM15.3615 13.9865L14.6538 13.273C14.9231 13.0038 15.1314 12.6949 15.2788 12.3463C15.4263 11.9974 15.5 11.6346 15.5 11.2578C15.5 10.8808 15.4263 10.5169 15.2788 10.1663C15.1314 9.81575 14.9231 9.50583 14.6538 9.2365L15.3615 8.52875C15.7372 8.91725 16.0208 9.34358 16.2125 9.80775C16.4042 10.2718 16.5 10.7551 16.5 11.2578C16.5 11.7603 16.4042 12.2436 16.2125 12.7078C16.0208 13.1718 15.7372 13.598 15.3615 13.9865ZM17.148 15.773C17.7468 15.1743 18.2052 14.486 18.523 13.708C18.841 12.9298 19 12.1138 19 11.2598C19 10.4058 18.841 9.589 18.523 8.8095C18.2052 8.03017 17.7468 7.34108 17.148 6.74225L17.8615 6.0345C18.5577 6.73067 19.0882 7.5265 19.453 8.422C19.8177 9.31767 20 10.2629 20 11.2578C20 12.2526 19.8177 13.1978 19.453 14.0933C19.0882 14.9888 18.5577 15.7846 17.8615 16.4808L17.148 15.773Z" fill="#1C1B1F"/>
</g>
</svg>
