<svg width="44" height="44" viewBox="0 0 44 44" fill="none" xmlns="http://www.w3.org/2000/svg">
<circle cx="22" cy="22" r="21.875" fill="white" stroke="#5A7D0F" stroke-width="0.25"/>
<mask id="mask0_18_1070" style="mask-type:alpha" maskUnits="userSpaceOnUse" x="6" y="6" width="32" height="32">
<rect x="6" y="6" width="32" height="32" fill="#D9D9D9"/>
</mask>
<g mask="url(#mask0_18_1070)">
<path d="M14.592 11.8005V9.25879H29.4086V11.8005V11.9255H29.5336H32.2003C33.1524 11.9255 33.9554 12.2555 34.6169 12.9172L34.6169 12.9172C35.2786 13.5789 35.6086 14.3819 35.6086 15.3338V16.6671C35.6086 18.6387 34.9432 20.3314 33.6108 21.7519C32.2792 23.1713 30.6501 23.891 28.7161 23.9148L28.637 23.9158L28.604 23.9877C28.1498 24.9788 27.4942 25.7998 26.6363 26.4523L26.6363 26.4523C25.7754 27.1074 24.8088 27.574 23.7356 27.8521L23.642 27.8764V27.9731V31.3338V31.4588H23.767H28.6926V34.7421H15.308V31.4588H20.2336H20.3586V31.3338V27.9731V27.8764L20.265 27.8521C19.1918 27.574 18.2253 27.1074 17.3643 26.4523L17.3643 26.4523C16.5064 25.7998 15.8508 24.9788 15.3966 23.9877L15.3636 23.9158L15.2845 23.9148C13.3505 23.891 11.7214 23.1713 10.3898 21.7519C9.05737 20.3314 8.39197 18.6387 8.39197 16.6671V15.3338C8.39197 14.3819 8.72198 13.5789 9.38369 12.9172L9.3837 12.9172C10.0452 12.2555 10.8482 11.9255 11.8003 11.9255H14.467H14.592V11.8005ZM14.4245 20.518L14.592 20.5785V20.4005V15.3338V15.2088H14.467H11.8003H11.6753V15.3338V16.6671C11.6753 17.5375 11.9278 18.3243 12.4323 19.0236C12.9361 19.7222 13.6013 20.2208 14.4245 20.518ZM29.4086 20.4005V20.5785L29.5761 20.518C30.3993 20.2208 31.0645 19.7222 31.5683 19.0236C32.0728 18.3243 32.3253 17.5375 32.3253 16.6671V15.3338V15.2088H32.2003H29.5336H29.4086V15.3338V20.4005Z" fill="#A8CE55" stroke="#5A7D0F" stroke-width="0.25"/>
</g>
</svg>
