<svg width="28" height="28" viewBox="0 0 28 28" fill="none" xmlns="http://www.w3.org/2000/svg">
<rect width="28" height="28" rx="6" fill="#A8CE55"/>
<g clip-path="url(#clip0_52_325)">
<path d="M14 4C8.4772 4 4 8.4772 4 14C4 18.6896 7.2288 22.6248 11.5844 23.7056V17.056H9.5224V14H11.5844V12.6832C11.5844 9.2796 13.1248 7.702 16.4664 7.702C17.1 7.702 18.1932 7.8264 18.6404 7.9504V10.7204C18.4044 10.6956 17.9944 10.6832 17.4852 10.6832C15.8456 10.6832 15.212 11.3044 15.212 12.9192V14H18.4784L17.9172 17.056H15.212V23.9268C20.1636 23.3288 24.0004 19.1128 24.0004 14C24 8.4772 19.5228 4 14 4Z" fill="black"/>
</g>
<defs>
<clipPath id="clip0_52_325">
<rect width="20" height="20" fill="white" transform="translate(4 4)"/>
</clipPath>
</defs>
</svg>
