<svg width="44" height="44" viewBox="0 0 44 44" fill="none" xmlns="http://www.w3.org/2000/svg">
<circle cx="22" cy="22" r="22" fill="white"/>
<mask id="mask0_18_1070" style="mask-type:alpha" maskUnits="userSpaceOnUse" x="6" y="6" width="32" height="32">
<rect x="6" y="6" width="32" height="32" fill="#D9D9D9"/>
</mask>
<g mask="url(#mask0_18_1070)">
<path d="M15.1831 34.8666V31.3333H20.2338V27.9726C19.1449 27.6904 18.1632 27.2166 17.2888 26.5513C16.4143 25.8862 15.7458 25.0489 15.2831 24.0393C13.3149 24.0151 11.6534 23.281 10.2988 21.837C8.94431 20.393 8.26709 18.6695 8.26709 16.6666V15.3333C8.26709 14.3489 8.60987 13.5139 9.29542 12.8283C9.98076 12.1427 10.8158 11.8 11.8004 11.8H14.4671V9.1333H29.5338V11.8H32.2004C33.1851 11.8 34.0201 12.1427 34.7054 12.8283C35.391 13.5139 35.7338 14.3489 35.7338 15.3333V16.6666C35.7338 18.6695 35.0565 20.393 33.7021 21.837C32.3474 23.281 30.686 24.0151 28.7178 24.0393C28.2551 25.0489 27.5865 25.8862 26.7121 26.5513C25.8376 27.2166 24.856 27.6904 23.7671 27.9726V31.3333H28.8178V34.8666H15.1831ZM14.4671 20.4V15.3333H11.8004V16.6666C11.8004 17.5111 12.0449 18.2722 12.5338 18.95C13.0226 19.6277 13.6671 20.1111 14.4671 20.4ZM29.5338 20.4C30.3338 20.1111 30.9782 19.6277 31.4671 18.95C31.956 18.2722 32.2004 17.5111 32.2004 16.6666V15.3333H29.5338V20.4Z" fill="#A8CE55"/>
</g>
</svg>
