<svg width="32" height="32" viewBox="0 0 32 32" fill="none" xmlns="http://www.w3.org/2000/svg">
<mask id="mask0_3_2657" style="mask-type:alpha" maskUnits="userSpaceOnUse" x="0" y="0" width="32" height="32">
<rect width="32" height="32" fill="#D9D9D9"/>
</mask>
<g mask="url(#mask0_3_2657)">
<path d="M18.1222 28.5335L16.9222 27.3335L21.6555 22.6001L9.39915 10.3438L4.66582 15.0771L3.46582 13.8771L5.38382 11.9438L4.18382 10.7438L6.98382 7.9438L5.11715 6.0618L6.06082 5.11813L7.94282 6.9848L10.7428 4.1848L11.9428 5.3848L13.8762 3.4668L15.0762 4.6668L10.3428 9.40013L22.5992 21.6565L27.3325 16.9231L28.5325 18.1231L26.6145 20.0565L27.8145 21.2565L25.0145 24.0565L26.8812 25.9385L25.9375 26.8821L24.0555 25.0155L21.2555 27.8155L20.0555 26.6155L18.1222 28.5335Z" fill="#A8CE55"/>
</g>
</svg>
