<svg width="32" height="32" viewBox="0 0 32 32" fill="none" xmlns="http://www.w3.org/2000/svg">
<mask id="mask0_1_1889" style="mask-type:alpha" maskUnits="userSpaceOnUse" x="0" y="0" width="32" height="32">
<rect width="32" height="32" fill="#D9D9D9"/>
</mask>
<g mask="url(#mask0_1_1889)">
<path d="M1.33301 23.4361V22.2847C1.33301 21.4658 1.77056 20.7863 2.64567 20.2461C3.52101 19.7061 4.64756 19.4361 6.02534 19.4361C6.22867 19.4361 6.44656 19.4458 6.67901 19.4654C6.91167 19.4852 7.15879 19.5173 7.42034 19.5617C7.21167 19.9257 7.05945 20.2992 6.96367 20.6821C6.86812 21.0649 6.82034 21.4487 6.82034 21.8334V23.4361H1.33301ZM9.33301 23.4361V21.9361C9.33301 21.3987 9.48901 20.9075 9.80101 20.4624C10.113 20.0175 10.5732 19.6326 11.1817 19.3077C11.7903 18.9831 12.4993 18.7395 13.3087 18.5771C14.118 18.4146 15.0116 18.3334 15.9893 18.3334C16.986 18.3334 17.889 18.4146 18.6983 18.5771C19.5077 18.7395 20.2167 18.9831 20.8253 19.3077C21.4338 19.6326 21.8928 20.0175 22.2023 20.4624C22.5117 20.9075 22.6663 21.3987 22.6663 21.9361V23.4361H9.33301ZM25.179 23.4361V21.8411C25.179 21.4157 25.1325 21.015 25.0393 20.6387C24.9462 20.2625 24.8066 19.9035 24.6203 19.5617C24.8988 19.5173 25.1488 19.4852 25.3703 19.4654C25.5917 19.4458 25.8015 19.4361 25.9997 19.4361C27.3775 19.4361 28.4997 19.7048 29.3663 20.2424C30.233 20.78 30.6663 21.4607 30.6663 22.2847V23.4361H25.179ZM6.01834 18.1794C5.49479 18.1794 5.04879 17.9936 4.68034 17.6221C4.31212 17.2505 4.12801 16.8038 4.12801 16.2821C4.12801 15.7658 4.31379 15.3248 4.68534 14.9591C5.0569 14.5933 5.50356 14.4104 6.02534 14.4104C6.54156 14.4104 6.9869 14.5933 7.36134 14.9591C7.73556 15.3248 7.92268 15.7684 7.92268 16.2897C7.92268 16.7957 7.74023 17.2372 7.37534 17.6141C7.01023 17.991 6.5579 18.1794 6.01834 18.1794ZM25.9997 18.1794C25.4886 18.1794 25.0446 17.991 24.6677 17.6141C24.2908 17.2372 24.1023 16.7957 24.1023 16.2897C24.1023 15.7684 24.2908 15.3248 24.6677 14.9591C25.0446 14.5933 25.4902 14.4104 26.0047 14.4104C26.5347 14.4104 26.9826 14.5933 27.3483 14.9591C27.7141 15.3248 27.897 15.7658 27.897 16.2821C27.897 16.8038 27.7152 17.2505 27.3517 17.6221C26.9879 17.9936 26.5372 18.1794 25.9997 18.1794ZM16.0087 17.3334C15.1993 17.3334 14.5083 17.0492 13.9357 16.4807C13.363 15.9125 13.0767 15.2224 13.0767 14.4104C13.0767 13.5822 13.3608 12.888 13.929 12.3277C14.4975 11.7673 15.1877 11.4871 15.9997 11.4871C16.8279 11.4871 17.5221 11.7664 18.0823 12.3251C18.6426 12.8835 18.9227 13.5756 18.9227 14.4014C18.9227 15.2107 18.6435 15.9017 18.085 16.4744C17.5266 17.0471 16.8345 17.3334 16.0087 17.3334Z" fill="#A8CE55"/>
</g>
</svg>
