<svg width="32" height="32" viewBox="0 0 32 32" fill="none" xmlns="http://www.w3.org/2000/svg">
<mask id="mask0_1_1895" style="mask-type:alpha" maskUnits="userSpaceOnUse" x="0" y="0" width="32" height="32">
<rect width="32" height="32" fill="#D9D9D9"/>
</mask>
<g mask="url(#mask0_1_1895)">
<path d="M13.2337 17.7027L14.272 14.2617L11.5387 12.2563H14.9543L16.0003 8.77933L17.0463 12.2563H20.462L17.721 14.2617L18.7593 17.7027L16.0003 15.5667L13.2337 17.7027ZM9.33366 28.6153V19.8283C8.48921 18.9974 7.83366 18.0248 7.36699 16.9103C6.90033 15.7957 6.66699 14.6033 6.66699 13.3333C6.66699 10.7316 7.5721 8.52556 9.38232 6.71533C11.1925 4.90511 13.3985 4 16.0003 4C18.6021 4 20.8081 4.90511 22.6183 6.71533C24.4285 8.52556 25.3337 10.7316 25.3337 13.3333C25.3337 14.6033 25.1003 15.7957 24.6337 16.9103C24.167 18.0248 23.5114 18.9974 22.667 19.8283V28.6153L16.0003 26.6153L9.33366 28.6153ZM16.0003 21.3333C18.2225 21.3333 20.1114 20.5556 21.667 19C23.2225 17.4444 24.0003 15.5556 24.0003 13.3333C24.0003 11.1111 23.2225 9.22222 21.667 7.66667C20.1114 6.11111 18.2225 5.33333 16.0003 5.33333C13.7781 5.33333 11.8892 6.11111 10.3337 7.66667C8.7781 9.22222 8.00033 11.1111 8.00033 13.3333C8.00033 15.5556 8.7781 17.4444 10.3337 19C11.8892 20.5556 13.7781 21.3333 16.0003 21.3333Z" fill="#A8CE55"/>
</g>
</svg>
