<svg width="32" height="33" viewBox="0 0 32 33" fill="none" xmlns="http://www.w3.org/2000/svg">
<mask id="mask0_1_3076" style="mask-type:alpha" maskUnits="userSpaceOnUse" x="0" y="0" width="32" height="33">
<rect y="0.5" width="32" height="32" fill="#D9D9D9"/>
</mask>
<g mask="url(#mask0_1_3076)">
<path d="M26.6 28.5C23.8222 28.5 21.0778 27.8944 18.3667 26.6833C15.6556 25.4722 13.1889 23.7556 10.9667 21.5333C8.74444 19.3111 7.02778 16.8444 5.81667 14.1333C4.60556 11.4222 4 8.67778 4 5.9C4 5.5 4.13333 5.16667 4.4 4.9C4.66667 4.63333 5 4.5 5.4 4.5H10.8C11.1111 4.5 11.3889 4.60556 11.6333 4.81667C11.8778 5.02778 12.0222 5.27778 12.0667 5.56667L12.9333 10.2333C12.9778 10.5889 12.9667 10.8889 12.9 11.1333C12.8333 11.3778 12.7111 11.5889 12.5333 11.7667L9.3 15.0333C9.74444 15.8556 10.2722 16.65 10.8833 17.4167C11.4944 18.1833 12.1667 18.9222 12.9 19.6333C13.5889 20.3222 14.3111 20.9611 15.0667 21.55C15.8222 22.1389 16.6222 22.6778 17.4667 23.1667L20.6 20.0333C20.8 19.8333 21.0611 19.6833 21.3833 19.5833C21.7056 19.4833 22.0222 19.4556 22.3333 19.5L26.9333 20.4333C27.2444 20.5222 27.5 20.6833 27.7 20.9167C27.9 21.15 28 21.4111 28 21.7V27.1C28 27.5 27.8667 27.8333 27.6 28.1C27.3333 28.3667 27 28.5 26.6 28.5Z" fill="#A8CE55"/>
</g>
</svg>
