<svg width="32" height="33" viewBox="0 0 32 33" fill="none" xmlns="http://www.w3.org/2000/svg">
<path d="M0 32.5L2.24933 24.2827C0.861331 21.8773 0.132 19.1507 0.133333 16.3547C0.137333 7.61333 7.25065 0.5 15.9906 0.5C20.232 0.501333 24.2133 2.15333 27.2079 5.15067C30.2013 8.148 31.8493 12.132 31.8479 16.3693C31.8439 25.112 24.7306 32.2253 15.9906 32.2253C13.3373 32.224 10.7226 31.5587 8.40665 30.2947L0 32.5ZM8.79598 27.424C11.0306 28.7507 13.164 29.5453 15.9853 29.5467C23.2493 29.5467 29.1666 23.6347 29.1706 16.3667C29.1733 9.084 23.2839 3.18 15.996 3.17733C8.72665 3.17733 2.81333 9.08933 2.81066 16.356C2.80933 19.3227 3.67866 21.544 5.13866 23.868L3.80666 28.732L8.79598 27.424ZM23.9786 20.1387C23.8799 19.9733 23.6159 19.8747 23.2186 19.676C22.8226 19.4773 20.8746 18.5187 20.5106 18.3867C20.148 18.2547 19.884 18.188 19.6186 18.5853C19.3546 18.9813 18.5946 19.8747 18.364 20.1387C18.1333 20.4027 17.9013 20.436 17.5053 20.2373C17.1093 20.0387 15.832 19.6213 14.3186 18.2707C13.1413 17.22 12.3453 15.9227 12.1146 15.5253C11.884 15.1293 12.0906 14.9147 12.288 14.7173C12.4666 14.54 12.684 14.2547 12.8826 14.0227C13.084 13.7933 13.1493 13.628 13.2826 13.3627C13.4146 13.0987 13.3493 12.8667 13.2493 12.668C13.1493 12.4707 12.3573 10.52 12.028 9.72667C11.7053 8.95467 11.3786 9.05867 11.136 9.04667L10.376 9.03333C10.112 9.03333 9.68264 9.132 9.31998 9.52933C8.95731 9.92667 7.93332 10.884 7.93332 12.8347C7.93332 14.7853 9.35331 16.6693 9.55064 16.9333C9.74931 17.1973 12.344 21.2 16.3186 22.916C17.264 23.324 18.0026 23.568 18.5773 23.7507C19.5266 24.052 20.3906 24.0093 21.0733 23.908C21.8346 23.7947 23.4173 22.9493 23.7479 22.024C24.0786 21.0973 24.0786 20.304 23.9786 20.1387Z" fill="#A8CE55"/>
</svg>
